<svg id="Capa_1" enable-background="new 0 0 512 512" height="512" viewBox="0 0 512 512" width="512" xmlns="http://www.w3.org/2000/svg"><g><g><g><g><path d="m93.787 440.314c-4.487 0-7.113-.089-7.56-.105-7.849-.291-14.145-6.586-14.436-14.435-.076-2.085-1.736-51.804 11.493-116.125 1.214-5.902 5.842-10.505 11.751-11.687l10.817-2.163-9.445-9.446c-3.851-3.85-5.312-9.483-3.818-14.72 7.856-27.554 17.846-53.418 29.69-76.872 3.113-6.166 10.035-9.408 16.763-7.854l20.509 4.733-12.024-26.454c-2.206-4.853-1.671-10.513 1.406-14.866 10.333-14.617 21.539-27.996 33.308-39.764 9.261-9.26 19.3-17.975 30.691-26.643 4.392-3.342 10.264-4.003 15.29-1.718l28.032 12.742-5.432-23.535c-1.522-6.597 1.563-13.397 7.531-16.595 22.486-12.049 47.288-22.331 73.716-30.56 5.324-1.658 11.126-.227 15.066 3.715l13.276 13.276 3.327-16.639c1.17-5.848 5.692-10.448 11.52-11.716 67.186-14.617 119.985-12.859 122.201-12.776 7.849.291 14.145 6.586 14.435 14.435.082 2.215 1.841 55.014-12.778 122.199-1.269 5.827-5.868 10.35-11.716 11.519l-16.64 3.328 13.276 13.276c3.941 3.941 5.372 9.744 3.716 15.066-8.229 26.427-18.511 51.229-30.56 73.716-3.198 5.967-9.996 9.052-16.595 7.531l-23.534-5.431 12.741 28.032c2.284 5.024 1.624 10.897-1.718 15.29-8.669 11.393-17.383 21.432-26.643 30.691-11.771 11.772-25.15 22.978-39.765 33.308-4.354 3.077-10.014 3.612-14.865 1.407l-26.454-12.025 4.733 20.509c1.553 6.729-1.689 13.649-7.854 16.763-23.46 11.847-49.323 21.836-76.872 29.69-5.23 1.493-10.868.032-14.719-3.819l-9.446-9.445-2.163 10.818c-1.182 5.909-5.785 10.537-11.688 11.751-50.551 10.397-92.087 11.598-108.563 11.598z" fill="#00a763"/></g></g></g><path d="m86.228 440.208c.446.017 3.072.105 7.56.105 16.476 0 58.012-1.201 108.564-11.599 5.902-1.214 10.506-5.842 11.688-11.751l2.163-10.818 9.446 9.445c3.851 3.851 9.488 5.312 14.719 3.819 27.549-7.854 53.412-17.843 76.872-29.69 6.165-3.113 9.407-10.033 7.854-16.763l-4.733-20.509 26.454 12.025c4.852 2.205 10.511 1.67 14.865-1.407 14.614-10.33 27.993-21.536 39.765-33.308 9.26-9.259 17.974-19.298 26.643-30.691 3.342-4.393 4.002-10.266 1.718-15.29l-12.741-28.032 23.534 5.431c6.599 1.521 13.396-1.564 16.595-7.531 12.049-22.487 22.331-47.289 30.56-73.716 1.656-5.322.226-11.125-3.716-15.066l-13.276-13.276 16.64-3.328c5.848-1.169 10.447-5.692 11.716-11.519 14.619-67.186 12.86-119.984 12.778-122.199-.145-3.924-1.792-7.46-4.383-10.052l-431.337 431.337c2.591 2.591 6.127 4.238 10.052 4.383z" fill="#007845"/><g><path d="m15 512c-3.839 0-7.678-1.464-10.606-4.394-5.858-5.858-5.858-15.355 0-21.213l362-362c5.857-5.858 15.355-5.858 21.213 0s5.858 15.355 0 21.213l-362 362c-2.929 2.93-6.768 4.394-10.607 4.394z" fill="#a2e786"/></g><g><path d="m387.607 145.607c5.858-5.858 5.858-15.355 0-21.213l-383.213 383.213c2.929 2.929 6.767 4.393 10.606 4.393s7.678-1.464 10.606-4.394z" fill="#00cb75"/></g></g></svg>