<?xml version="1.0"?>
<svg fill="#1a4980" xmlns="http://www.w3.org/2000/svg" width="512" height="512" viewBox="0 0 512 512"><g><path d="M380,8H132a28.031,28.031,0,0,0-28,28V476a28.031,28.031,0,0,0,28,28H380a28.031,28.031,0,0,0,28-28V36A28.031,28.031,0,0,0,380,8ZM309.75,24l-4,16h-99.5l-4-16ZM296,488H132a12.01,12.01,0,0,1-12-12V352H296Zm96-12a12.01,12.01,0,0,1-12,12H360V352h32Zm0-140H352a8,8,0,0,0-8,8V488H312V344a8,8,0,0,0-8-8H120V304H230c11.45,12.79,19.8,21.12,20.36,21.68a8.016,8.016,0,0,0,11.28,0c.56-.56,8.91-8.89,20.36-21.68H392ZM218.19,265.15C190.59,230.1,176,202.04,176,184a80,80,0,0,1,160,0c0,18.04-14.59,46.1-42.19,81.15-14.88,18.9-29.92,35.14-37.81,43.39C248.11,300.29,233.07,284.05,218.19,265.15ZM392,288H295.86c3.41-4.08,6.91-8.37,10.42-12.82C336.62,236.67,352,206,352,184a96,96,0,0,0-192,0c0,22,15.38,52.67,45.72,91.18,3.51,4.45,7.01,8.74,10.42,12.82H120V36a12.01,12.01,0,0,1,12-12h53.75l6.49,25.94A8,8,0,0,0,200,56H312a8,8,0,0,0,7.76-6.06L326.25,24H380a12.01,12.01,0,0,1,12,12Z"/><path d="M216,456H144a8,8,0,0,0,0,16h72a8,8,0,0,0,0-16Z"/><path d="M248,456h-8a8,8,0,0,0,0,16h8a8,8,0,0,0,0-16Z"/><path d="M288,176a32,32,0,1,0-32,32A32.036,32.036,0,0,0,288,176Zm-48,0a16,16,0,1,1,16,16A16.019,16.019,0,0,1,240,176Z"/></g></svg>
