<?xml version="1.0" encoding="iso-8859-1"?>
<!-- Generator: Adobe Illustrator 19.0.0, SVG Export Plug-In . SVG Version: 6.00 Build 0)  -->
<svg fill="#1a4980" version="1.1" id="Capa_1" xmlns="http://www.w3.org/2000/svg" xmlns:xlink="http://www.w3.org/1999/xlink" x="0px" y="0px"
	 viewBox="0 0 512 512" style="enable-background:new 0 0 512 512;" xml:space="preserve">
<g>
	<g>
		<path d="M368.219,0H143.781c-21.823,0-39.577,17.755-39.577,39.577v432.845c0,21.823,17.755,39.577,39.577,39.577h224.438
			c21.823,0,39.577-17.755,39.577-39.577V39.577C407.796,17.755,390.042,0,368.219,0z M392.767,472.423
			c0,13.535-11.012,24.548-24.548,24.548H143.781c-13.536,0-24.548-11.013-24.548-24.548v-24.548h273.534V472.423z M392.767,48.094
			H353.19c-4.151,0-7.515,3.365-7.515,7.515c0,4.15,3.364,7.515,7.515,7.515h39.577v369.722H119.233V63.123h197.386
			c4.151,0,7.515-3.365,7.515-7.515c0-4.15-3.364-7.515-7.515-7.515H119.233v-8.517c0-13.535,11.012-24.548,24.548-24.548h224.438
			c13.536,0,24.548,11.013,24.548,24.548V48.094z"/>
	</g>
</g>
<g>
	<g>
		<path d="M272.031,464.908h-32.063c-4.151,0-7.515,3.365-7.515,7.515c0,4.15,3.364,7.515,7.515,7.515h32.063
			c4.151,0,7.515-3.365,7.515-7.515C279.546,468.273,276.182,464.908,272.031,464.908z"/>
	</g>
</g>
<g>
	<g>
		<path d="M257.002,24.047H256c-4.151,0-7.515,3.365-7.515,7.515s3.364,7.515,7.515,7.515h1.002c4.151,0,7.515-3.365,7.515-7.515
			S261.153,24.047,257.002,24.047z"/>
	</g>
</g>
<g>
	<g>
		<path d="M289.065,24.047h-1.002c-4.151,0-7.515,3.365-7.515,7.515s3.364,7.515,7.515,7.515h1.002c4.151,0,7.515-3.365,7.515-7.515
			S293.216,24.047,289.065,24.047z"/>
	</g>
</g>
<g>
	<g>
		<path d="M224.939,24.047h-1.002c-4.151,0-7.515,3.365-7.515,7.515s3.364,7.515,7.515,7.515h1.002c4.151,0,7.515-3.365,7.515-7.515
			S229.09,24.047,224.939,24.047z"/>
	</g>
</g>
<g>
	<g>
		<path d="M239.969,144.282h-88.172c-4.151,0-7.515,3.365-7.515,7.515v88.172c0,4.15,3.364,7.515,7.515,7.515h88.172
			c4.151,0,7.515-3.365,7.515-7.515v-88.172C247.483,147.646,244.12,144.282,239.969,144.282z M232.454,232.454h-73.143v-73.143
			h73.143V232.454z"/>
	</g>
</g>
<g>
	<g>
		<path d="M215.922,168.329h-40.078c-4.151,0-7.515,3.365-7.515,7.515v40.078c0,4.15,3.364,7.515,7.515,7.515h40.078
			c4.151,0,7.515-3.365,7.515-7.515v-40.078C223.436,171.693,220.073,168.329,215.922,168.329z M208.407,208.407h-25.049v-25.049
			h25.049V208.407z"/>
	</g>
</g>
<g>
	<g>
		<path d="M239.969,264.517h-88.172c-4.151,0-7.515,3.365-7.515,7.515v88.172c0,4.15,3.364,7.515,7.515,7.515h88.172
			c4.151,0,7.515-3.365,7.515-7.515v-88.172C247.483,267.881,244.12,264.517,239.969,264.517z M232.454,352.689h-73.143v-73.143
			h73.143V352.689z"/>
	</g>
</g>
<g>
	<g>
		<path d="M215.922,288.564h-40.078c-4.151,0-7.515,3.365-7.515,7.515v40.078c0,4.15,3.364,7.515,7.515,7.515h40.078
			c4.151,0,7.515-3.365,7.515-7.515v-40.078C223.436,291.928,220.073,288.564,215.922,288.564z M208.407,328.642h-25.049v-25.049
			h25.049V328.642z"/>
	</g>
</g>
<g>
	<g>
		<path d="M360.204,264.517h-88.172c-4.151,0-7.515,3.365-7.515,7.515v88.172c0,4.15,3.364,7.515,7.515,7.515h88.172
			c4.151,0,7.515-3.365,7.515-7.515v-88.172C367.718,267.881,364.355,264.517,360.204,264.517z M352.689,352.689h-73.143v-73.143
			h73.143V352.689z"/>
	</g>
</g>
<g>
	<g>
		<path d="M336.157,288.564h-40.078c-4.151,0-7.515,3.365-7.515,7.515v40.078c0,4.15,3.364,7.515,7.515,7.515h40.078
			c4.151,0,7.515-3.365,7.515-7.515v-40.078C343.671,291.928,340.308,288.564,336.157,288.564z M328.642,328.642h-25.049v-25.049
			h25.049V328.642z"/>
	</g>
</g>
<g>
	<g>
		<path d="M360.204,200.391h-8.016H327.64v-17.033h16.532c4.151,0,7.515-3.365,7.515-7.515v-24.047c0-4.15-3.364-7.515-7.515-7.515
			c-4.151,0-7.515,3.365-7.515,7.515v16.532h-16.532c-4.151,0-7.515,3.365-7.515,7.515v24.548h-9.018v-24.548
			c0-4.15-3.364-7.515-7.515-7.515h-24.047c-4.151,0-7.515,3.365-7.515,7.515s3.364,7.515,7.515,7.515h16.532v24.548
			c0,4.15,3.364,7.515,7.515,7.515h48.595v17.033h-33.065v-0.501c0-4.15-3.364-7.515-7.515-7.515s-7.515,3.365-7.515,7.515v8.016
			c0,4.15,3.364,7.515,7.515,7.515h48.094c4.151,0,7.515-3.365,7.515-7.515v-24.548h0.501c4.151,0,7.515-3.365,7.515-7.515
			S364.355,200.391,360.204,200.391z"/>
	</g>
</g>
<g>
	<g>
		<path d="M280.047,232.454h-8.016c-4.151,0-7.515,3.365-7.515,7.515s3.364,7.515,7.515,7.515h8.016
			c4.151,0,7.515-3.365,7.515-7.515S284.198,232.454,280.047,232.454z"/>
	</g>
</g>
<g>
	<g>
		<path d="M272.031,200.391c-4.151,0-7.515,3.365-7.515,7.515v8.016c0,4.15,3.364,7.515,7.515,7.515s7.515-3.365,7.515-7.515v-8.016
			C279.546,203.756,276.182,200.391,272.031,200.391z"/>
	</g>
</g>
<g>
	<g>
		<path d="M280.047,144.282h-8.016c-4.151,0-7.515,3.365-7.515,7.515c0,4.15,3.364,7.515,7.515,7.515h8.016
			c4.151,0,7.515-3.365,7.515-7.515C287.562,147.646,284.198,144.282,280.047,144.282z"/>
	</g>
</g>
<g>
	<g>
		<path d="M305.096,144.282h-1.002c-4.151,0-7.515,3.365-7.515,7.515c0,4.15,3.364,7.515,7.515,7.515h1.002
			c4.151,0,7.515-3.365,7.515-7.515C312.611,147.646,309.247,144.282,305.096,144.282z"/>
	</g>
</g>
<g>
</g>
<g>
</g>
<g>
</g>
<g>
</g>
<g>
</g>
<g>
</g>
<g>
</g>
<g>
</g>
<g>
</g>
<g>
</g>
<g>
</g>
<g>
</g>
<g>
</g>
<g>
</g>
<g>
</g>
</svg>
